REM DIRINDEX 1\2\5,1\2\6,1\2\7,1\2\8,1\3\9,1\3\10,1\3\11,1\4\12,1\4\13,1\4\14,1\4\15,1\4\16
REM DIRNAME cjc034,folder01,folder02,folder03,folder04,folder05,folder06,folder07,folder08,folder09,folder10,folder11,folder12,folder13,folder14,folder15
TITLE ""
FILE "1200_sec02_0509_0517.mp3" MP3
  TRACK 01 AUDIO
    TITLE "0:"
    INDEX 01 00:00:00
  TRACK 02 AUDIO
    TITLE "12:cjc034_05680"
    INDEX 01 00:00:17
  TRACK 03 AUDIO
    TITLE "0:"
    INDEX 01 00:01:46
  TRACK 04 AUDIO
    TITLE "13:cjc034_05681"
    INDEX 01 00:02:06
  TRACK 05 AUDIO
    TITLE "0:"
    INDEX 01 00:07:70
  TRACK 06 AUDIO
    TITLE "14:cjc034_05682"
    INDEX 01 00:08:30
  TRACK 07 AUDIO
    TITLE "0:"
    INDEX 01 00:09:59
  TRACK 08 AUDIO
    TITLE "15:cjc034_05683"
    INDEX 01 00:10:19
  TRACK 09 AUDIO
    TITLE "0:"
    INDEX 01 00:14:13
  TRACK 10 AUDIO
    TITLE "12:cjc034_05684"
    INDEX 01 00:15:48
  TRACK 11 AUDIO
    TITLE "0:"
    INDEX 01 00:16:65
  TRACK 12 AUDIO
    TITLE "13:cjc034_05685"
    INDEX 01 00:17:23
  TRACK 13 AUDIO
    TITLE "0:"
    INDEX 01 00:22:05
  TRACK 14 AUDIO
    TITLE "14:cjc034_05686"
    INDEX 01 00:22:36
  TRACK 15 AUDIO
    TITLE "0:"
    INDEX 01 00:23:53
  TRACK 16 AUDIO
    TITLE "15:cjc034_05687"
    INDEX 01 00:24:12
  TRACK 17 AUDIO
    TITLE "0:"
    INDEX 01 00:28:29
  TRACK 18 AUDIO
    TITLE "12:cjc034_05688"
    INDEX 01 00:29:64
  TRACK 19 AUDIO
    TITLE "0:"
    INDEX 01 00:31:08
  TRACK 20 AUDIO
    TITLE "13:cjc034_05689"
    INDEX 01 00:31:39
  TRACK 21 AUDIO
    TITLE "0:"
    INDEX 01 00:34:49
  TRACK 22 AUDIO
    TITLE "14:cjc034_05690"
    INDEX 01 00:35:06
  TRACK 23 AUDIO
    TITLE "0:"
    INDEX 01 00:36:25
  TRACK 24 AUDIO
    TITLE "15:cjc034_05691"
    INDEX 01 00:36:62
  TRACK 25 AUDIO
    TITLE "0:"
    INDEX 01 00:40:19
  TRACK 26 AUDIO
    TITLE "12:cjc034_05692"
    INDEX 01 00:41:51
  TRACK 27 AUDIO
    TITLE "0:"
    INDEX 01 00:42:55
  TRACK 28 AUDIO
    TITLE "13:cjc034_05693"
    INDEX 01 00:43:13
  TRACK 29 AUDIO
    TITLE "0:"
    INDEX 01 00:45:16
  TRACK 30 AUDIO
    TITLE "14:cjc034_05694"
    INDEX 01 00:45:49
  TRACK 31 AUDIO
    TITLE "0:"
    INDEX 01 00:46:54
  TRACK 32 AUDIO
    TITLE "15:cjc034_05695"
    INDEX 01 00:47:11
  TRACK 33 AUDIO
    TITLE "0:"
    INDEX 01 00:51:46
  TRACK 34 AUDIO
    TITLE "12:cjc034_05696"
    INDEX 01 00:53:06
  TRACK 35 AUDIO
    TITLE "0:"
    INDEX 01 00:54:17
  TRACK 36 AUDIO
    TITLE "13:cjc034_05697"
    INDEX 01 00:54:52
  TRACK 37 AUDIO
    TITLE "0:"
    INDEX 01 00:56:74
  TRACK 38 AUDIO
    TITLE "14:cjc034_05698"
    INDEX 01 00:57:35
  TRACK 39 AUDIO
    TITLE "0:"
    INDEX 01 00:58:44
  TRACK 40 AUDIO
    TITLE "15:cjc034_05699"
    INDEX 01 00:59:06
  TRACK 41 AUDIO
    TITLE "0:"
    INDEX 01 01:03:59
  TRACK 42 AUDIO
    TITLE "12:cjc034_05700"
    INDEX 01 01:05:15
  TRACK 43 AUDIO
    TITLE "0:"
    INDEX 01 01:06:32
  TRACK 44 AUDIO
    TITLE "13:cjc034_05701"
    INDEX 01 01:06:65
  TRACK 45 AUDIO
    TITLE "0:"
    INDEX 01 01:10:10
  TRACK 46 AUDIO
    TITLE "14:cjc034_05702"
    INDEX 01 01:10:43
  TRACK 47 AUDIO
    TITLE "0:"
    INDEX 01 01:11:60
  TRACK 48 AUDIO
    TITLE "15:cjc034_05703"
    INDEX 01 01:12:17
  TRACK 49 AUDIO
    TITLE "0:"
    INDEX 01 01:17:47
  TRACK 50 AUDIO
    TITLE "12:cjc034_05704"
    INDEX 01 01:19:03
  TRACK 51 AUDIO
    TITLE "0:"
    INDEX 01 01:20:22
  TRACK 52 AUDIO
    TITLE "13:cjc034_05705"
    INDEX 01 01:20:57
  TRACK 53 AUDIO
    TITLE "0:"
    INDEX 01 01:21:47
  TRACK 54 AUDIO
    TITLE "14:cjc034_05706"
    INDEX 01 01:22:05
  TRACK 55 AUDIO
    TITLE "0:"
    INDEX 01 01:23:26
  TRACK 56 AUDIO
    TITLE "15:cjc034_05707"
    INDEX 01 01:23:60
  TRACK 57 AUDIO
    TITLE "0:"
    INDEX 01 01:28:53
  TRACK 58 AUDIO
    TITLE "12:cjc034_05708"
    INDEX 01 01:30:13
  TRACK 59 AUDIO
    TITLE "0:"
    INDEX 01 01:31:10
  TRACK 60 AUDIO
    TITLE "13:cjc034_05709"
    INDEX 01 01:31:45
  TRACK 61 AUDIO
    TITLE "0:"
    INDEX 01 01:32:55
  TRACK 62 AUDIO
    TITLE "14:cjc034_05710"
    INDEX 01 01:33:13
  TRACK 63 AUDIO
    TITLE "0:"
    INDEX 01 01:34:10
  TRACK 64 AUDIO
    TITLE "15:cjc034_05711"
    INDEX 01 01:34:44
  TRACK 65 AUDIO
    TITLE "0:"
    INDEX 01 01:38:71
  TRACK 66 AUDIO
    TITLE "12:cjc034_05712"
    INDEX 01 01:40:31
  TRACK 67 AUDIO
    TITLE "0:"
    INDEX 01 01:41:40
  TRACK 68 AUDIO
    TITLE "13:cjc034_05713"
    INDEX 01 01:42:00
  TRACK 69 AUDIO
    TITLE "0:"
    INDEX 01 01:44:17
  TRACK 70 AUDIO
    TITLE "14:cjc034_05714"
    INDEX 01 01:44:48
  TRACK 71 AUDIO
    TITLE "0:"
    INDEX 01 01:45:61
  TRACK 72 AUDIO
    TITLE "15:cjc034_05715"
    INDEX 01 01:46:19
  TRACK 73 AUDIO
    TITLE "0:"
    INDEX 01 01:51:44
